<svg width="40" height="40" fill="none" xmlns="http://www.w3.org/2000/svg"><g clip-path="url(#clip0_365_19471)"><path d="M36.219 11.047V35.18a4.818 4.818 0 01-4.82 4.82H12.272a4.818 4.818 0 01-4.82-4.82V4.82C7.445 2.156 9.61 0 12.273 0h12.899l11.047 11.047z" fill="#fff"/><path d="M36.219 11.047h-9.055a1.99 1.99 0 01-1.992-1.992V0l11.047 11.047zM6.734 16.46h23.93a2.95 2.95 0 012.953 2.954v7.188a2.95 2.95 0 01-2.953 2.953H6.734a2.95 2.95 0 01-2.953-2.953v-7.188a2.95 2.95 0 012.953-2.953z" fill="#F15642"/><path d="M15.773 21.563c0 1.664-.882 2.585-2.437 2.585h-.953v2.79h-1.149V19h2.094c1.563 0 2.445.945 2.445 2.563zm-1.164 0c0-.977-.421-1.477-1.28-1.477h-.938v2.969h.937c.86.008 1.281-.47 1.281-1.492zM16.75 19h1.969c1.539 0 2.445.906 2.445 2.469v2.968c0 1.57-.906 2.493-2.437 2.493h-1.985V19h.008zm1.984 6.844c.813 0 1.282-.485 1.282-1.43v-2.922c0-.93-.453-1.406-1.282-1.406h-.843v5.758h.843zm4.938-5.766v2.367h2.39v1.04h-2.39v3.445h-1.14V19h3.741v1.078h-2.601z" fill="#fff"/></g><defs><clipPath id="clip0_365_19471"><path fill="#fff" d="M0 0h40v40H0z"/></clipPath></defs></svg>