<svg width="198" height="48" fill="none" xmlns="http://www.w3.org/2000/svg"><g clip-path="url(#clip0_2008_5294)" fill="#3C2B99"><path d="M1.902 0h32.271v33.669H23.135s13.655-10.487 4.829-20.283C19.609 4.104 1.902 0 1.902 0z"/><path d="M6.206 34.61c-8.83-9.792 4.824-20.283 4.824-20.283H0V48h32.263S14.565 43.896 6.206 34.61z"/><path d="M17.118 28.616c4.872-9.063 10.524-12.61 10.524-12.61S21.115 17.8 16.126 25.21c-4.296-1.38-9.493.047-9.493.047s7.908 1.287 10.481 3.359h.004zM64.044.224h6.61v28.925h-6.61V17.662H54.95V29.15h-6.61V.224h6.61v11.075h9.093V.224zM94 29.15l-1.447-4.548H81.81l-1.447 4.547H73.13L82.966.224h8.43l9.83 28.93h-7.23l.005-.005zM83.795 18.403h6.778l-3.389-10.62-3.389 10.62zm42.845 4.383h3.099v11.903h-6.609v-5.54h-14.463v5.54h-6.613V22.786h2.934c1.514-2.178 2.271-5.371 2.271-9.589V.224h19.378V22.79l.003-.004zm-14.627 0h8.018V6.422h-6.159v6.862c0 4.103-.619 7.273-1.859 9.506v-.004zm56.442 6.364h-7.312l-8.017-12.81v12.81h-6.61V16.34l-8.014 12.81h-7.315l9.339-14.713L131.599.224h7.315l7.602 12.726V.224h6.61V12.95L160.732.224h7.311l-8.924 14.213 9.336 14.712zm22.108 0l-1.448-4.548h-10.744l-1.447 4.547h-7.229L179.528.224h8.43l9.834 28.93h-7.229v-.005zm-10.207-10.746h6.774l-3.389-10.62-3.389 10.62h.004zM58.423 36.242v9.867H56.17v-5.74l-2.553 4.19h-.251l-2.55-4.19v5.74h-2.255v-9.867h2.255l2.675 4.382 2.68-4.382h2.25zm3.946 7.694h3.946v2.173h-6.198v-9.867h6.128v2.17h-3.876v1.636h3.526v2.142H62.37v1.746zm12.964 0h1.06v4.06h-2.256V46.11h-4.93v1.887H66.95v-4.06h1c.518-.742.777-1.833.777-3.268v-4.426h6.61v7.694h-.005zm-4.985 0h2.734v-5.58h-2.099v2.34c0 1.4-.212 2.482-.635 3.24zm12.736 2.173v-5.355l-3.805 5.355h-1.69v-9.867h2.255v5.36l3.805-5.36h1.69v9.867h-2.255zm11.415-2.173h1.059v4.06h-2.256V46.11H87.03v-9.867h2.256v7.694h2.957v-7.694H94.5v7.694zm7.751 2.173v-5.355l-3.805 5.355h-1.69v-9.867h2.255v5.36l3.805-5.36h1.69v9.867h-2.255zm9.3-9.867h2.256v9.867h-2.256v-3.92h-3.098v3.92h-2.256v-9.867h2.256v3.778h3.098v-3.778zm8.653 10.063c-1.474 0-2.698-.49-3.671-1.471-.973-.98-1.459-2.2-1.459-3.656s.486-2.676 1.459-3.657c.973-.98 2.197-1.471 3.671-1.471a5.05 5.05 0 012.452.612 4.612 4.612 0 011.777 1.671l-1.946 1.126a2.218 2.218 0 00-.929-.894 2.87 2.87 0 00-1.354-.318c-.874 0-1.572.267-2.094.804-.522.538-.781 1.248-.781 2.13 0 .883.263 1.593.781 2.127.522.537 1.22.804 2.094.804.499 0 .954-.11 1.362-.326a2.18 2.18 0 00.921-.886l1.946 1.126a4.52 4.52 0 01-1.761 1.671 5.074 5.074 0 01-2.464.612l-.004-.004zm13.259-.196h-2.565l-3.154-4.567v4.567h-2.256v-9.867h2.256v4.284l3.012-4.284h2.566l-3.323 4.806 3.464 5.061zm6.343 0v-5.355L136 46.109h-1.691v-9.867h2.252v5.36l3.805-5.36h1.69v9.867h-2.251zm5.707-10.699v-1.832h4.229v1.832h-4.229zm3.734 10.699v-5.355l-3.805 5.355h-1.69v-9.867h2.255v5.36l3.805-5.36h1.691v9.867h-2.256zm14.937-2.173h1.056v4.06h-2.256V46.11h-6.268v-9.867h2.255v7.694h2.958v-7.694h2.255v7.694zm4.508 0h3.946v2.173h-6.202v-9.867h6.131v2.17h-3.875v1.636h3.522v2.142h-3.522v1.746zm10.571-7.694h2.255v9.867h-2.255v-3.92h-3.103v3.92h-2.255v-9.867h2.255v3.778h3.103v-3.778zm10.567 0v2.17h-2.538v7.697h-2.251v-7.697h-2.538v-2.17h7.327zm4.719 0c.969 0 1.785.33 2.452.985.667.66 1 1.456 1 2.397a3.24 3.24 0 01-1 2.397c-.667.66-1.483.985-2.452.985h-1.479v3.103h-2.255v-9.867h3.734zm0 4.653c.349 0 .636-.122.859-.365.228-.243.338-.545.338-.902s-.114-.66-.338-.902a1.114 1.114 0 00-.859-.365h-1.479v2.538h1.479v-.004z"/></g><defs><clipPath id="clip0_2008_5294"><path fill="#fff" d="M0 0h198v48H0z"/></clipPath></defs></svg>